<svg width="40" height="31" viewBox="0 0 40 31" fill="none" xmlns="http://www.w3.org/2000/svg">
<path d="M30.4971 13.7361C32.9603 13.39 34.8567 11.2782 34.862 8.71959C34.862 6.19809 33.0239 4.10744 30.6136 3.71191" stroke="#5468FD" stroke-width="2.64863" stroke-linecap="round" stroke-linejoin="round"/>
<path d="M33.7461 19.6582C36.1316 20.0149 37.7967 20.8501 37.7967 22.5717C37.7967 23.7565 37.0127 24.5264 35.7449 25.0102" stroke="#5468FD" stroke-width="2.64863" stroke-linecap="round" stroke-linejoin="round"/>
<path fill-rule="evenodd" clip-rule="evenodd" d="M19.8991 20.3882C14.2239 20.3882 9.37695 21.2481 9.37695 24.6825C9.37695 28.1151 14.1939 28.9998 19.8991 28.9998C25.5742 28.9998 30.4194 28.1487 30.4194 24.7125C30.4194 21.2764 25.6042 20.3882 19.8991 20.3882Z" stroke="#5468FD" stroke-width="2.64863" stroke-linecap="round" stroke-linejoin="round"/>
<path fill-rule="evenodd" clip-rule="evenodd" d="M19.9007 15.4868C23.6247 15.4868 26.6441 12.4691 26.6441 8.74341C26.6441 5.01944 23.6247 2 19.9007 2C16.1767 2 13.1573 5.01944 13.1573 8.74341C13.1432 12.455 16.1396 15.4745 19.8512 15.4868H19.9007Z" stroke="#5468FD" stroke-width="2.64863" stroke-linecap="round" stroke-linejoin="round"/>
<path d="M9.29951 13.7361C6.83452 13.39 4.93987 11.2782 4.93457 8.71959C4.93457 6.19809 6.77272 4.10744 9.18297 3.71191" stroke="#5468FD" stroke-width="2.64863" stroke-linecap="round" stroke-linejoin="round"/>
<path d="M6.05063 19.6582C3.6651 20.0149 2 20.8501 2 22.5717C2 23.7565 2.78399 24.5264 4.0518 25.0102" stroke="#5468FD" stroke-width="2.64863" stroke-linecap="round" stroke-linejoin="round"/>
</svg>
