<svg width="31" height="31" viewBox="0 0 31 31" fill="none" xmlns="http://www.w3.org/2000/svg">
<path fill-rule="evenodd" clip-rule="evenodd" d="M12.5179 20.3833C6.84501 20.3833 2 21.2407 2 24.6764C2 28.112 6.8155 29.0004 12.5179 29.0004C18.1924 29.0004 23.0359 28.1415 23.0359 24.7074C23.0359 21.2732 18.2219 20.3833 12.5179 20.3833Z" stroke="#5468FD" stroke-width="2.21368" stroke-linecap="round" stroke-linejoin="round"/>
<path fill-rule="evenodd" clip-rule="evenodd" d="M12.5193 15.4828C16.2427 15.4828 19.2607 12.4648 19.2607 8.7414C19.2607 5.01799 16.2427 2 12.5193 2C8.79733 2 5.77934 5.01799 5.77934 8.7414C5.76606 12.4515 8.76191 15.4695 12.4735 15.4828H12.5193Z" stroke="#5468FD" stroke-width="2.21368" stroke-linecap="round" stroke-linejoin="round"/>
<path d="M26.2809 10.7358V16.6538" stroke="#5468FD" stroke-width="2.21368" stroke-linecap="round" stroke-linejoin="round"/>
<path d="M29.3026 13.6944H23.2666" stroke="#5468FD" stroke-width="2.21368" stroke-linecap="round" stroke-linejoin="round"/>
</svg>
