<svg width="32" height="32" viewBox="0 0 32 32" fill="none" xmlns="http://www.w3.org/2000/svg">
<path fill-rule="evenodd" clip-rule="evenodd" d="M32 16C32 24.832 24.816 32 16 32L15.5524 31.9939C6.92708 31.7565 0 24.6823 0 16C0 7.184 7.168 0 16 0C24.816 0 32 7.184 32 16ZM12.831 9.60013C12.367 10.0801 12.367 10.8321 12.847 11.2961L17.567 16.0001L12.847 20.7041C12.367 21.1681 12.367 21.9361 12.831 22.4001C13.311 22.8801 14.063 22.8801 14.527 22.4001L20.111 16.8481C20.335 16.6241 20.463 16.3201 20.463 16.0001C20.463 15.6801 20.335 15.3761 20.111 15.1521L14.527 9.60013C14.303 9.36012 13.999 9.24813 13.695 9.24813C13.375 9.24813 13.071 9.36012 12.831 9.60013Z" fill="#5468FD"/>
</svg>
