<svg width="72" height="32" viewBox="0 0 72 32" fill="none" xmlns="http://www.w3.org/2000/svg">
<path fill-rule="evenodd" clip-rule="evenodd" d="M71.9158 16C71.9158 24.832 55.8668 32 36.1718 32L35.1718 31.9939C15.9028 31.7565 0.427734 24.6823 0.427734 16C0.427734 7.184 16.4411 0 36.1718 0C55.8668 0 71.9158 7.184 71.9158 16ZM29.0923 9.60013C28.0557 10.0801 28.0557 10.8321 29.128 11.2961L39.6725 16.0001L29.128 20.7041C28.0557 21.1681 28.0557 21.9361 29.0923 22.4001C30.1646 22.8801 31.8446 22.8801 32.8812 22.4001L45.3558 16.8481C45.8562 16.6241 46.1422 16.3201 46.1422 16.0001C46.1422 15.6801 45.8562 15.3761 45.3558 15.1521L32.8812 9.60013C32.3807 9.36012 31.7016 9.24813 31.0225 9.24813C30.3076 9.24813 29.6284 9.36012 29.0923 9.60013Z" fill="#5468FD"/>
</svg>
